# xmcd
#
# Track frame offsets: 
#        150
#        6180
#        9840
#        20403
#        38993
#        47343
#        68260
#        76440
#        90523
#        109103
#        128583
#        146748
#        176433
#        181008
#        196380
#        202800
#        221798
#
# Disc length: 3381 seconds
#
# Revision: 5
# Processed by: cddbd v1.5.2PL0 Copyright (c) Steve Scherf et al.
# Submitted via: ExactAudioCopy v0.95a4
#
DISCID=ce0d3311
DTITLE=Larry The Cable Guy - The Right To Bare Arms
DYEAR=2005
DGENRE=Comedy
TTITLE0=GIT-R-DONE!
TTITLE1=Midgets And Gay Bars
TTITLE2=WWJD
TTITLE3=Las Vegas
TTITLE4=Hank Williams Jr. High School
TTITLE5=Hooters And Hooters Airlines
TTITLE6=Dodge Truck, Retards And Stinkbait
TTITLE7=NASCAR
TTITLE8=The Right To Bare Arms
TTITLE9=Family In Stanford
TTITLE10=Faith Healers And Weight Problems
TTITLE11=Romance And Imported Rubbers
TTITLE12=Throwed Outta Penney's
TTITLE13=Shavin', Waxin', Primpin' And Shootin' Quail
TTITLE14=News Items
TTITLE15=Song for A Friend (And Other Things I Think About When I'm Ha
TTITLE15=mmered At 4 A.M.)
TTITLE16=Toddler Mail
EXTD=YEAR: 2005
EXTT0=
EXTT1=
EXTT2=
EXTT3=
EXTT4=
EXTT5=
EXTT6=
EXTT7=
EXTT8=
EXTT9=
EXTT10=
EXTT11=
EXTT12=
EXTT13=
EXTT14=
EXTT15=
EXTT16=
PLAYORDER=
